<?xml version="1.0" encoding="utf-8"?>
<svg viewBox="0 0 500 500" xmlns="http://www.w3.org/2000/svg">
  <path d="M 306.746 190.745 L 306.746 178.145 L 324.146 173.945 Q 336.146 170.945 340.946 163.745 Q 345.746 156.545 346.346 144.545 L 346.346 35.945 L 249.746 -161.455 Q 243.746 -173.455 238.346 -179.455 Q 232.946 -185.455 222.746 -189.055 L 211.946 -193.255 L 211.946 -205.855 L 370.946 -205.855 L 370.946 -193.255 L 360.146 -189.655 Q 346.946 -185.455 345.746 -176.155 Q 344.546 -166.855 351.146 -152.455 L 419.546 -1.255 L 493.346 -156.655 Q 498.746 -167.455 498.146 -177.655 Q 497.546 -187.855 485.546 -190.855 L 477.146 -193.255 L 477.146 -205.855 L 555.746 -205.855 L 555.746 -193.255 L 543.746 -189.655 Q 531.746 -186.055 526.646 -178.855 Q 521.546 -171.655 516.146 -159.655 L 432.746 13.745 L 432.746 144.545 Q 432.746 169.145 454.346 173.945 L 472.346 178.145 L 472.346 190.745 Z" transform="matrix(1, 0, 0, 1, -134.311523, 264.108398)" style="fill: rgb(135, 126, 255);"/>
  <path style="fill: rgb(51, 51, 51);"/>
</svg>